<?xml version="1.0" standalone="no"?>
<!DOCTYPE svg PUBLIC "-//W3C//DTD SVG 20010904//EN"
 "http://www.w3.org/TR/2001/REC-SVG-20010904/DTD/svg10.dtd">
<svg version="1.0" xmlns="http://www.w3.org/2000/svg"
 width="250.000000pt" height="250.000000pt" viewBox="0 0 300.000000 300.000000"
 preserveAspectRatio="xMidYMid meet">
<metadata>
Created by potrace 1.10, written by Peter Selinger 2001-2011
</metadata>
<g transform="translate(0.000000,300.000000) scale(0.100000,-0.100000)"
fill="#f00000" stroke="none">
<path d="M615 2709 c-23 -12 -584 -757 -603 -802 -17 -40 -6 -66 60 -137 200
-214 618 -662 693 -740 49 -52 153 -162 230 -245 356 -381 459 -486 481 -491
57 -15 49 -22 610 576 115 124 311 333 435 464 123 132 275 294 337 360 134
143 150 168 130 213 -21 50 -581 790 -606 802 -31 15 -1738 14 -1767 0z m475
-174 c0 -2 -11 -24 -24 -47 -12 -24 -50 -95 -84 -158 -33 -63 -90 -169 -125
-235 l-64 -120 -257 -3 c-206 -2 -256 0 -250 10 5 7 100 136 212 286 l204 272
194 0 c107 0 194 -2 194 -5z m624 -17 c20 -33 286 -537 286 -543 0 -3 -225 -5
-500 -5 -275 0 -500 2 -500 5 0 6 266 510 286 543 14 22 18 22 214 22 196 0
200 0 214 -22z m788 -250 c112 -150 207 -279 212 -286 6 -10 -44 -12 -250 -10
l-257 3 -64 120 c-35 66 -92 172 -125 235 -34 63 -72 134 -84 158 -13 23 -24
45 -24 47 0 3 87 5 194 5 l194 0 204 -272z m-1694 -525 c118 -265 165 -368
192 -428 125 -273 220 -489 215 -493 -3 -3 -6 -3 -8 -1 -2 2 -204 219 -450
481 -246 262 -447 479 -447 482 0 3 107 6 238 6 l238 0 22 -47z m1202 38 c0
-4 -24 -62 -54 -127 -29 -65 -95 -211 -146 -324 -51 -113 -110 -243 -131 -288
-22 -46 -39 -86 -39 -87 0 -2 -17 -41 -38 -87 -22 -46 -51 -111 -67 -145 -15
-35 -31 -63 -35 -63 -4 0 -20 28 -35 63 -16 34 -45 99 -67 145 -21 46 -38 85
-38 87 0 1 -17 41 -39 87 -34 74 -119 260 -269 593 -27 61 -53 121 -56 133
l-7 22 510 0 c281 0 511 -4 511 -9z m680 3 c0 -3 -29 -36 -64 -73 -34 -36
-206 -219 -381 -406 -392 -420 -457 -487 -462 -482 -3 4 104 246 217 492 27
60 74 163 192 428 l22 47 238 0 c131 0 238 -3 238 -6z"/>
</g>
</svg>
